# xmcd
#
# Track frame offsets: 
#        150
#        11463
#        22262
#        34713
#        44913
#        56238
#        68313
#        78513
#        89613
#        102288
#        113388
#        126213
#        138138
#        148713
#
# Disc length: 2113 seconds
#
# Revision: 0
# Processed by: cddbd v1.5.1PL0 Copyright (c) Steve Scherf et al.
# Submitted via: ExactAudioCopy v0.95a4
#
DISCID=bd083f0e
DTITLE=Johnny Cash - Country Gold
DYEAR=2004
DGENRE=Country
TTITLE0=Oh Lonesome Me
TTITLE1=Train Of Love
TTITLE2=I Walk The Line
TTITLE3=Hey Porter
TTITLE4=Don't Make Me Go
TTITLE5=Home Of The Blues
TTITLE6=Get Rhythm
TTITLE7=I Love You Because
TTITLE8=Next In Line
TTITLE9=Cry, Cry, Cry
TTITLE10=Folsome Prison Blues
TTITLE11=So Doggone Lonesome
TTITLE12=There You Go
TTITLE13=Rock Island Line
EXTD=
EXTT0=
EXTT1=
EXTT2=
EXTT3=
EXTT4=
EXTT5=
EXTT6=
EXTT7=
EXTT8=
EXTT9=
EXTT10=
EXTT11=
EXTT12=
EXTT13=
PLAYORDER=
